<?xml version="1.0" encoding="utf-8"?>
<!-- Generator: Adobe Illustrator 22.0.1, SVG Export Plug-In . SVG Version: 6.00 Build 0)  -->
<svg version="1.1" id="圖層_1" xmlns="http://www.w3.org/2000/svg" xmlns:xlink="http://www.w3.org/1999/xlink" x="0px" y="0px"
	 viewBox="0 0 34 30" enable-background="new 0 0 34 30" xml:space="preserve">
<path id="Vector" fill="#F2C94C" d="M5.9,12.9C10.7,4.3,13.1,0,17,0c3.9,0,6.3,4.3,11.1,12.9l0.6,1.1c4,7.2,6.1,10.8,4.2,13.4
	C31.2,30,26.6,30,17.6,30h-1.2c-9,0-13.6,0-15.4-2.6c-1.8-2.6,0.2-6.2,4.2-13.4L5.9,12.9z"/>
<path fill="none" stroke="#000000" stroke-width="2.5" stroke-linecap="round" d="M17,8.3v8.3"/>
<path id="Vector_3" stroke="#000000" stroke-width="1.6667" d="M17.8,21.7c0,0.5-0.4,0.8-0.8,0.8c-0.5,0-0.8-0.4-0.8-0.8
	c0-0.5,0.4-0.8,0.8-0.8C17.5,20.8,17.8,21.2,17.8,21.7z"/>
</svg>
