<svg xmlns="http://www.w3.org/2000/svg" xml:space="preserve" viewBox="0 0 1285 723"><g fill="#bdbdbd" font-size="14"><text x="32.4" y="718.7">0</text><text x="203.1" y="718.7">5</text><text x="374.4" y="718.7">10</text><text x="553.4" y="718.7">15</text><text x="732.5" y="718.7">20</text><text x="911.5" y="718.7">25</text><text x="1090.5" y="718.7">30</text><text x="1269.4" y="718.7">35</text><text x=".6" y="39.9">10</text><text x=".6" y="109.5">09</text><text x=".6" y="179.1">08</text><text x=".5" y="248.5">07</text><text x=".5" y="318">06</text><text x=".5" y="387.5">05</text><text x=".5" y="457.1">04</text><text x=".5" y="526.7">03</text><text x=".5" y="596">02</text><text x=".5" y="665.5">01</text><path d="M32 17.4h550v35H32zM32 87.3h363.5v35H32zM32 157.2h189v35H32zM32 227.1h100v35H32zM32 297h311v35H32zM32 366.9h58v35H32zM32 436.9h50v35H32zM32 506.7h50v35H32zM32 576.6h50v35H32zM32 646.5h50v35H32z"/></g><path fill="none" stroke="#bdbdbd" d="M36 694.9V2M207 694.9V2M382 694.9V2M561 694.9V2M740 694.9V2M919 694.9V2M1098 694.9V2M1277 694.9V2"/></svg>