<?xml version="1.0" encoding="utf-8"?>
<!-- Generator: Adobe Illustrator 22.0.1, SVG Export Plug-In . SVG Version: 6.00 Build 0)  -->
<svg version="1.1" id="圖層_1" xmlns="http://www.w3.org/2000/svg" xmlns:xlink="http://www.w3.org/1999/xlink" x="0px" y="0px"
	 viewBox="0 0 32 32" enable-background="new 0 0 32 32" xml:space="preserve">
<path fill="#BDBDBD" d="M31.4,18.6l0.3-3.8c0.3-3,0.5-4.6-0.2-5.3C31.3,9.3,31.2,9.2,31,9s-0.3-0.2-0.6-0.2c-0.8,0-1.8,1-3.7,3.2
	c-1,1.1-1.4,1.8-2.1,1.8c-0.3,0-0.6,0-1-0.2c-0.5-0.3-0.8-1-1.6-2.4l-3.5-7.4C17.6,1.3,17,0,16,0s-1.6,1.3-2.9,4l-3.5,7.2
	c-0.6,1.4-1,2.1-1.6,2.4c-0.3,0.2-0.6,0.2-1,0.2c-0.5-0.2-1.1-0.6-2.1-1.8C3,9.8,2.1,8.8,1.3,8.8C1.1,8.8,0.8,9,0.6,9
	c0,0.2-0.2,0.3-0.3,0.5c-0.5,0.6-0.3,2.1,0,5.1l0.3,3.8c0.6,6.4,1,9.6,2.9,11.5s4.8,1.9,10.4,1.9h4.3c5.6,0,8.5,0,10.4-1.9
	C30.4,28.2,30.8,25,31.4,18.6z"/>
<path fill="#FFFFFF" d="M16.4,16.9l0.7,1.5c0.1,0.1,0.2,0.2,0.3,0.2l1.6,0.2c0.4,0.1,0.5,0.5,0.3,0.8l-1.2,1.2c0,0-0.1,0.2-0.1,0.3
	l0.3,1.6c0.1,0.4-0.3,0.7-0.7,0.5l-1.5-0.8c-0.1-0.1-0.3-0.1-0.4,0l-1.5,0.8c-0.3,0.2-0.7-0.1-0.7-0.5l0.3-1.6c0-0.1,0-0.3-0.1-0.4
	l-1.2-1.2c-0.3-0.3-0.1-0.7,0.3-0.8l1.6-0.2c0.1,0,0.3-0.1,0.3-0.2l0.7-1.5C15.8,16.5,16.2,16.5,16.4,16.9z"/>
</svg>
