<?xml version="1.0" encoding="utf-8"?>
<!-- Generator: Adobe Illustrator 22.0.1, SVG Export Plug-In . SVG Version: 6.00 Build 0)  -->
<svg version="1.1" id="圖層_1" xmlns="http://www.w3.org/2000/svg" xmlns:xlink="http://www.w3.org/1999/xlink" x="0px" y="0px"
	 viewBox="0 0 26 26" enable-background="new 0 0 26 26" xml:space="preserve">
<circle fill="#DEDEDE" cx="13" cy="13" r="13"/>
<circle fill="#BDBDBD" cx="13" cy="13" r="11"/>
<path fill="#F8F8F8" d="M9.9,17.4v-1.3l3.1-2.9c0.3-0.3,0.5-0.5,0.7-0.7c0.2-0.2,0.3-0.4,0.4-0.6c0.1-0.2,0.1-0.4,0.1-0.6
	c0-0.3-0.1-0.5-0.2-0.7c-0.1-0.2-0.3-0.3-0.5-0.4c-0.2-0.1-0.4-0.2-0.7-0.2c-0.3,0-0.5,0.1-0.7,0.2c-0.2,0.1-0.4,0.3-0.5,0.5
	s-0.2,0.4-0.2,0.7H9.8c0-0.6,0.1-1.1,0.4-1.5c0.3-0.4,0.6-0.7,1.1-1s1-0.3,1.6-0.3s1.2,0.1,1.6,0.3c0.5,0.2,0.8,0.5,1.1,0.9
	c0.3,0.4,0.4,0.8,0.4,1.3c0,0.3-0.1,0.7-0.2,1s-0.4,0.7-0.7,1.1c-0.3,0.4-0.8,0.9-1.4,1.4l-1.3,1.2v0.1h3.7v1.5
	C16.2,17.4,9.9,17.4,9.9,17.4z"/>
</svg>
