<?xml version="1.0" encoding="utf-8"?>
<!-- Generator: Adobe Illustrator 22.0.1, SVG Export Plug-In . SVG Version: 6.00 Build 0)  -->
<svg version="1.1" id="圖層_1" xmlns="http://www.w3.org/2000/svg" xmlns:xlink="http://www.w3.org/1999/xlink" x="0px" y="0px"
	 viewBox="0 0 30 34" enable-background="new 0 0 30 34" xml:space="preserve">
<path id="Vector" fill="#F2C94C" d="M8.1,3.3c3.4-2,5.1-3,6.9-3c1.9,0,3.5,1,6.9,3L23.1,4c3.4,2,5.1,3,6,4.7
	c0.9,1.6,0.9,3.6,0.9,7.7v1.4c0,4,0,6-0.9,7.7c-0.9,1.6-2.6,2.6-6,4.7l-1.1,0.7c-3.4,2-5.1,3-6.9,3c-1.9,0-3.5-1-6.9-3L6.9,30
	c-3.4-2-5.1-3-6-4.7C0,23.7,0,21.7,0,17.7v-1.4c0-4,0-6,0.9-7.7C1.9,7,3.5,6,6.9,4L8.1,3.3z"/>
<path fill="none" stroke="#000000" stroke-width="2.5" stroke-linecap="round" d="M15,8.7v10"/>
<path id="Vector_3" d="M15,25.3c0.9,0,1.7-0.7,1.7-1.7c0-0.9-0.7-1.7-1.7-1.7s-1.7,0.7-1.7,1.7C13.3,24.6,14.1,25.3,15,25.3z"/>
</svg>
