<svg xmlns="http://www.w3.org/2000/svg" width="220" height="262" fill="none"><path fill="url(#a)" d="m213.7 60-59-16-35 127.8c-1.2 4.4.5 9.6 5.3 14.5 9.7 9.8 28.4 15 41.8 11.4 6.7-1.8 10.8-5.4 12-9.8l35-127.8Z"/><path fill="url(#b)" d="m213.7 60-59-16-35 127.8c-1.2 4.4.5 9.6 5.3 14.5 9.7 9.8 28.4 15 41.8 11.4 6.7-1.8 10.8-5.4 12-9.8l35-127.8Z"/><path fill="url(#c)" d="M201.7 69.9A47.8 47.8 0 0 1 160 58.5c-9.7-9.9-6.7-20.8 6.6-24.3a47.8 47.8 0 0 1 41.9 11.4c9.7 9.9 6.7 20.7-6.7 24.3Z"/><path fill="#fff" d="M202 68.6a47.8 47.8 0 0 1-41.7-11.4c-4.7-4.7-6.4-9.6-5.5-13.9-1.6 4.5 0 10 5.1 15.1 9.7 9.9 28.5 15 41.8 11.5 7-1.9 11.2-5.8 12.1-10.5-1.4 4.1-5.3 7.5-11.7 9.2Z" opacity=".5"/><path fill="url(#d)" d="M150.7 98 91.7 82 63 186.7c-1.2 4.4.4 9.6 5.3 14.5 9.7 9.8 28.4 15 41.8 11.4 6.7-1.8 10.7-5.4 12-9.8L150.6 98Z"/><path fill="url(#e)" d="M150.7 98 91.7 82 63 186.7c-1.2 4.4.4 9.6 5.3 14.5 9.7 9.8 28.4 15 41.8 11.4 6.7-1.8 10.7-5.4 12-9.8L150.6 98Z"/><path fill="url(#f)" d="M138.7 107.8A47.8 47.8 0 0 1 97 96.4c-9.7-9.8-6.8-20.7 6.6-24.3a47.8 47.8 0 0 1 41.9 11.5c9.7 9.8 6.7 20.7-6.7 24.2Z"/><path fill="#fff" d="M139 106.5a47.8 47.8 0 0 1-41.8-11.4c-4.6-4.7-6.3-9.6-5.4-13.8-1.6 4.5 0 10 5.1 15 9.7 10 28.4 15 41.8 11.5 7-1.9 11.2-5.7 12.1-10.4-1.4 4-5.3 7.4-11.7 9.1Z" opacity=".5"/><path fill="url(#g)" d="m87 138.8-59.1-16.2-21.6 79c-1.2 4.4.5 9.6 5.3 14.5 9.7 9.8 28.4 15 41.8 11.4 6.7-1.8 10.8-5.4 12-9.7l21.6-79Z"/><path fill="url(#h)" d="m87 138.8-59.1-16.2-21.6 79c-1.2 4.4.5 9.6 5.3 14.5 9.7 9.8 28.4 15 41.8 11.4 6.7-1.8 10.8-5.4 12-9.7l21.6-79Z"/><path fill="url(#i)" d="M75 148.6A47.8 47.8 0 0 1 33.2 137c-9.8-9.8-6.8-20.7 6.6-24.2a47.8 47.8 0 0 1 41.8 11.4c9.7 9.8 6.8 20.7-6.6 24.3Z"/><path fill="#fff" d="M75.3 147.3a47.8 47.8 0 0 1-41.8-11.5c-4.6-4.7-6.3-9.6-5.5-13.8-1.5 4.5 0 10 5.2 15.1 9.7 9.9 28.4 15 41.8 11.5 7-2 11.1-5.8 12.1-10.5-1.4 4.1-5.4 7.5-11.8 9.2Z" opacity=".5"/><path fill="#000AFF" fill-rule="evenodd" d="M166.5 34.2c-7.3 2-11.5 6-12.2 11L144 82.4c-10-9-27.7-13.7-40.6-10.3-7.3 2-11.5 6-12.2 11l-11 40c-10-9-27.7-13.6-40.5-10.2-7.3 2-11.5 6-12.2 11L6.3 201.5c-1.2 4.4.5 9.6 5.3 14.5 9.7 9.8 28.4 15 41.8 11.4 6.7-1.8 10.8-5.4 12-9.7l4.2-15.4a48 48 0 0 0 40.5 10.2c6.7-1.8 10.7-5.4 12-9.8l4.2-15.3a48 48 0 0 0 40.5 10.2c6.7-1.8 10.8-5.4 12-9.8l34.8-127.6c1.4-4.4-.3-9.7-5.2-14.7a47.8 47.8 0 0 0-41.9-11.4Z" clip-rule="evenodd" opacity=".5" style="mix-blend-mode:lighten"/><defs><linearGradient id="a" x1="134.8" x2="193.6" y1="116.4" y2="132.5" gradientUnits="userSpaceOnUse"><stop stop-color="#C0BFF6"/><stop offset=".5" stop-color="#D1D1F9"/><stop offset="1" stop-color="#E9E9FD"/></linearGradient><linearGradient id="b" x1="69" x2="182.5" y1="98.4" y2="129.5" gradientUnits="userSpaceOnUse"><stop stop-color="#5761D7"/><stop offset=".2" stop-color="#5B65D8"/><stop offset=".4" stop-color="#6A72DE"/><stop offset=".6" stop-color="#8188E8"/><stop offset=".8" stop-color="#A2A6F5"/><stop offset="1" stop-color="#BCBEFF"/></linearGradient><linearGradient id="c" x1="-1780.6" x2="-1745.3" y1="-1973" y2="-1937.5" gradientUnits="userSpaceOnUse"><stop stop-color="#C0BFF6"/><stop offset=".3" stop-color="#C4C3F6"/><stop offset=".6" stop-color="#D2D2F9"/><stop offset="1" stop-color="#E9E9FD"/></linearGradient><linearGradient id="d" x1="75" x2="133.7" y1="142.9" y2="158.9" gradientUnits="userSpaceOnUse"><stop stop-color="#C0BFF6"/><stop offset=".5" stop-color="#D1D1F9"/><stop offset="1" stop-color="#E9E9FD"/></linearGradient><linearGradient id="e" x1="9.1" x2="122.6" y1="124.9" y2="155.9" gradientUnits="userSpaceOnUse"><stop stop-color="#5761D7"/><stop offset=".2" stop-color="#5B65D8"/><stop offset=".4" stop-color="#6A72DE"/><stop offset=".6" stop-color="#8188E8"/><stop offset=".8" stop-color="#A2A6F5"/><stop offset="1" stop-color="#BCBEFF"/></linearGradient><linearGradient id="f" x1="-1814.9" x2="-1779.6" y1="-1905.5" y2="-1869.9" gradientUnits="userSpaceOnUse"><stop stop-color="#C0BFF6"/><stop offset=".3" stop-color="#C4C3F6"/><stop offset=".6" stop-color="#D2D2F9"/><stop offset="1" stop-color="#E9E9FD"/></linearGradient><linearGradient id="g" x1="14.7" x2="73.5" y1="170.7" y2="186.8" gradientUnits="userSpaceOnUse"><stop stop-color="#C0BFF6"/><stop offset=".5" stop-color="#D1D1F9"/><stop offset="1" stop-color="#E9E9FD"/></linearGradient><linearGradient id="h" x1="-51.1" x2="62.4" y1="152.7" y2="183.8" gradientUnits="userSpaceOnUse"><stop stop-color="#5761D7"/><stop offset=".2" stop-color="#5B65D8"/><stop offset=".4" stop-color="#6A72DE"/><stop offset=".6" stop-color="#8188E8"/><stop offset=".8" stop-color="#A2A6F5"/><stop offset="1" stop-color="#BCBEFF"/></linearGradient><linearGradient id="i" x1="-1849" x2="-1813.6" y1="-1834.1" y2="-1798.6" gradientUnits="userSpaceOnUse"><stop stop-color="#C0BFF6"/><stop offset=".3" stop-color="#C4C3F6"/><stop offset=".6" stop-color="#D2D2F9"/><stop offset="1" stop-color="#E9E9FD"/></linearGradient></defs></svg>