<svg xmlns="http://www.w3.org/2000/svg" width="184" height="255" fill="none"><path fill="#BDBFFF" d="M41.8 185.8H183V254H41.8v-68.2Z"/><path fill="url(#a)" d="M41.8 185.8H183V254H41.8v-68.2Z"/><path fill="url(#b)" d="M41.8 185.8H183V254H41.8v-68.2Z"/><path fill="#CFD1FF" d="M1 127.5h129l53 58.3H41.8L1 127.5Z"/><path fill="#8990EC" d="m1 127.5 40.8 58.3V254L1 195.7v-68.2Z"/><path fill="url(#c)" fill-opacity=".2" d="m1 127.5 40.8 58.3V254L1 195.7v-68.2Z"/><g filter="url(#d)"><path fill="#EAEAFE" d="M63.6 199.6c0-1 .9-2 2-2H89a2 2 0 0 1 2 2v41.5a2 2 0 0 1-2 2H65.6a2 2 0 0 1-2-2v-41.5Z"/><g filter="url(#e)"><path fill="#BDBFFF" d="M71.1 206.3c0-1.1 1-2 2-2h9.3a2 2 0 0 1 2 2v28.2a2 2 0 0 1-2 2h-9.3a2 2 0 0 1-2-2v-28.2Z"/></g><path fill="#EAEAFE" stroke="url(#f)" d="M64 199.6c0-.8.7-1.5 1.6-1.5H89c.8 0 1.5.7 1.5 1.5v41.5c0 .9-.7 1.5-1.5 1.5H65.6c-.9 0-1.5-.6-1.5-1.5v-41.5Z"/><g filter="url(#g)"><path fill="#BDBFFF" d="M71.1 206.3c0-1.1 1-2 2-2h9.3a2 2 0 0 1 2 2v28.2a2 2 0 0 1-2 2h-9.3a2 2 0 0 1-2-2v-28.2Z"/></g><path stroke="url(#h)" d="M71.6 206.3c0-.8.7-1.5 1.5-1.5h9.3c.8 0 1.5.7 1.5 1.5v28.2c0 .8-.7 1.5-1.5 1.5h-9.3c-.8 0-1.5-.7-1.5-1.5v-28.2Z"/><path fill="#EAEAFE" stroke="url(#i)" d="M99.1 199.6c0-.8.7-1.5 1.5-1.5h23.5c.9 0 1.5.7 1.5 1.5v41.5c0 .9-.6 1.5-1.5 1.5h-23.5c-.8 0-1.5-.6-1.5-1.5v-41.5Z"/><g filter="url(#j)"><path fill="#BDBFFF" d="M106.2 206.3c0-1.1 1-2 2-2h9.3a2 2 0 0 1 2 2v28.2a2 2 0 0 1-2 2h-9.3a2 2 0 0 1-2-2v-28.2Z"/></g><path stroke="url(#k)" d="M106.7 206.3c0-.8.7-1.5 1.5-1.5h9.3c.8 0 1.5.7 1.5 1.5v28.2c0 .8-.7 1.5-1.5 1.5h-9.3c-.8 0-1.5-.7-1.5-1.5v-28.2Z"/><path fill="#EAEAFE" stroke="url(#l)" d="M134.2 199.6c0-.8.7-1.5 1.5-1.5h23.5c.8 0 1.5.7 1.5 1.5v41.5c0 .9-.7 1.5-1.5 1.5h-23.5c-.8 0-1.5-.6-1.5-1.5v-41.5Z"/><g filter="url(#m)"><path fill="#BDBFFF" d="M141.3 206.3c0-1.1.9-2 2-2h9.3a2 2 0 0 1 2 2v28.2a2 2 0 0 1-2 2h-9.3a2 2 0 0 1-2-2v-28.2Z"/></g><path stroke="url(#n)" d="M141.8 206.3c0-.8.7-1.5 1.5-1.5h9.3c.8 0 1.5.7 1.5 1.5v28.2c0 .8-.7 1.5-1.5 1.5h-9.3c-.8 0-1.5-.7-1.5-1.5v-28.2Z"/></g><g filter="url(#o)"><path fill="#8990EC" d="M4.5 128.4h121.2l46 50.3H40L4.5 128.4Z"/></g><path fill="#E9E9E9" d="M41.8 138.4H183v36.8H41.8v-36.8Z"/><path fill="#F5F5F5" d="M1 80.1h129l53 58.3H41.8L1 80.1Z"/><path fill="#D4D4D4" d="m1 80.1 40.8 58.3v36.3L1 116.4V80.1Z"/><path fill="#fff" d="M63.6 147.4h27.5v7.6H63.6zM63.6 158.8h27.5v7.6H63.6zM133.7 147.4h27.5v7.6h-27.5zM133.7 158.8h27.5v7.6h-27.5zM168.8 147.4h7.6v7.6h-7.6zM168.8 158.8h7.6v7.6h-7.6zM98.6 147.4h27.5v7.6H98.6zM98.6 158.8h27.5v7.6H98.6zM34.2 136l3.8 6.2v7.6l-3.8-6.2V136ZM34.2 148.8 38 155v7.6l-3.8-6.2v-7.6Z"/><g fill="#fff" filter="url(#p)"><path d="M63.6 147.4h27.5v7.6H63.6zM63.6 158.8h27.5v7.6H63.6zM133.7 147.4h27.5v7.6h-27.5zM133.7 158.8h27.5v7.6h-27.5zM168.8 147.4h7.6v7.6h-7.6zM168.8 158.8h7.6v7.6h-7.6zM98.6 147.4h27.5v7.6H98.6zM98.6 158.8h27.5v7.6H98.6zM34.2 136l3.8 6.2v7.6l-3.8-6.2V136ZM34.2 148.8 38 155v7.6l-3.8-6.2v-7.6Z"/></g><g filter="url(#q)"><path fill="#D4D4D4" d="M4.5 80.6h121.2l46.4 49.7H40.6l-36-49.7Z"/></g><path fill="#BDBFFF" d="M41.8 59.3H183v68.2H41.8V59.3Z"/><path fill="url(#r)" d="M41.8 59.3H183v68.2H41.8V59.3Z"/><path fill="#CFD1FF" d="M1 1h129l53 58.3H41.8L1 1Z"/><g filter="url(#s)"><path fill="#BDBFFF" d="M17 8h110.5L167 51.3h-119L17 8Z"/></g><g filter="url(#t)"><path fill="#CFD1FF" d="M32.3 12.8h90.5l27 30.3H55.1L32.3 12.8Z"/></g><path fill="#8990EC" d="m1 1 40.8 58.3v68.2L1 69.2V1Z"/><g filter="url(#u)"><path fill="#EAEAFE" d="M101.2 95A18.3 18.3 0 1 1 83 76.5V95h18.3Z"/><g filter="url(#v)"><path fill="#E2E3FF" d="M99.6 95.7a17 17 0 1 1-17-17v17h17Z"/></g><path fill="#EAEAFE" d="M86 73.5a18.3 18.3 0 0 1 18.4 18.3H86V73.5Z"/><g filter="url(#w)"><path fill="#E3E4FF" d="M86.3 74.9a17 17 0 0 1 17 17h-17V75Z"/></g><rect width="40.9" height="9.4" x="122.2" y="81.9" fill="#EAEAFE" rx="4.5"/><g filter="url(#x)"><rect width="39.8" height="8.5" x="123.3" y="82.5" fill="#E3E4FF" rx="4.3"/></g><rect width="25.1" height="9.4" x="122.2" y="96.5" fill="#EAEAFE" rx="4.5"/><g filter="url(#y)"><rect width="23.7" height="8.5" x="123.3" y="97.6" fill="#E3E4FF" rx="4.3"/></g></g><defs><filter id="d" width="105.6" height="53.5" x="57.6" y="194.6" color-interpolation-filters="sRGB" filterUnits="userSpaceOnUse"><feFlood flood-opacity="0" result="BackgroundImageFix"/><feColorMatrix in="SourceAlpha" result="hardAlpha" values="0 0 0 0 0 0 0 0 0 0 0 0 0 0 0 0 0 0 127 0"/><feOffset dx="-2" dy="1"/><feGaussianBlur stdDeviation="2"/><feComposite in2="hardAlpha" operator="out"/><feColorMatrix values="0 0 0 0 0.537255 0 0 0 0 0.564706 0 0 0 0 0.92549 0 0 0 1 0"/><feBlend in2="BackgroundImageFix" result="effect1_dropShadow_4082_237202"/><feBlend in="SourceGraphic" in2="effect1_dropShadow_4082_237202" result="shape"/></filter><filter id="e" width="13.3" height="36.2" x="71.1" y="204.3" color-interpolation-filters="sRGB" filterUnits="userSpaceOnUse"><feFlood flood-opacity="0" result="BackgroundImageFix"/><feBlend in="SourceGraphic" in2="BackgroundImageFix" result="shape"/><feColorMatrix in="SourceAlpha" result="hardAlpha" values="0 0 0 0 0 0 0 0 0 0 0 0 0 0 0 0 0 0 127 0"/><feOffset dy="4"/><feGaussianBlur stdDeviation="2"/><feComposite in2="hardAlpha" k2="-1" k3="1" operator="arithmetic"/><feColorMatrix values="0 0 0 0 0.537255 0 0 0 0 0.564706 0 0 0 0 0.92549 0 0 0 1 0"/><feBlend in2="shape" result="effect1_innerShadow_4082_237202"/></filter><filter id="g" width="13.3" height="36.2" x="71.1" y="204.3" color-interpolation-filters="sRGB" filterUnits="userSpaceOnUse"><feFlood flood-opacity="0" result="BackgroundImageFix"/><feBlend in="SourceGraphic" in2="BackgroundImageFix" result="shape"/><feColorMatrix in="SourceAlpha" result="hardAlpha" values="0 0 0 0 0 0 0 0 0 0 0 0 0 0 0 0 0 0 127 0"/><feOffset dy="4"/><feGaussianBlur stdDeviation="2"/><feComposite in2="hardAlpha" k2="-1" k3="1" operator="arithmetic"/><feColorMatrix values="0 0 0 0 0.537255 0 0 0 0 0.564706 0 0 0 0 0.92549 0 0 0 1 0"/><feBlend in2="shape" result="effect1_innerShadow_4082_237202"/></filter><filter id="j" width="13.3" height="36.2" x="106.2" y="204.3" color-interpolation-filters="sRGB" filterUnits="userSpaceOnUse"><feFlood flood-opacity="0" result="BackgroundImageFix"/><feBlend in="SourceGraphic" in2="BackgroundImageFix" result="shape"/><feColorMatrix in="SourceAlpha" result="hardAlpha" values="0 0 0 0 0 0 0 0 0 0 0 0 0 0 0 0 0 0 127 0"/><feOffset dy="4"/><feGaussianBlur stdDeviation="2"/><feComposite in2="hardAlpha" k2="-1" k3="1" operator="arithmetic"/><feColorMatrix values="0 0 0 0 0.537255 0 0 0 0 0.564706 0 0 0 0 0.92549 0 0 0 1 0"/><feBlend in2="shape" result="effect1_innerShadow_4082_237202"/></filter><filter id="m" width="13.3" height="36.2" x="141.3" y="204.3" color-interpolation-filters="sRGB" filterUnits="userSpaceOnUse"><feFlood flood-opacity="0" result="BackgroundImageFix"/><feBlend in="SourceGraphic" in2="BackgroundImageFix" result="shape"/><feColorMatrix in="SourceAlpha" result="hardAlpha" values="0 0 0 0 0 0 0 0 0 0 0 0 0 0 0 0 0 0 127 0"/><feOffset dy="4"/><feGaussianBlur stdDeviation="2"/><feComposite in2="hardAlpha" k2="-1" k3="1" operator="arithmetic"/><feColorMatrix values="0 0 0 0 0.537255 0 0 0 0 0.564706 0 0 0 0 0.92549 0 0 0 1 0"/><feBlend in2="shape" result="effect1_innerShadow_4082_237202"/></filter><filter id="o" width="175.1" height="58.2" x=".5" y="124.4" color-interpolation-filters="sRGB" filterUnits="userSpaceOnUse"><feFlood flood-opacity="0" result="BackgroundImageFix"/><feBlend in="SourceGraphic" in2="BackgroundImageFix" result="shape"/><feGaussianBlur result="effect1_foregroundBlur_4082_237202" stdDeviation="2"/></filter><filter id="p" width="150.2" height="38.3" x="30.2" y="132" color-interpolation-filters="sRGB" filterUnits="userSpaceOnUse"><feFlood flood-opacity="0" result="BackgroundImageFix"/><feBlend in="SourceGraphic" in2="BackgroundImageFix" result="shape"/><feGaussianBlur result="effect1_foregroundBlur_4082_237202" stdDeviation="2"/></filter><filter id="q" width="175.6" height="57.8" x=".5" y="76.6" color-interpolation-filters="sRGB" filterUnits="userSpaceOnUse"><feFlood flood-opacity="0" result="BackgroundImageFix"/><feBlend in="SourceGraphic" in2="BackgroundImageFix" result="shape"/><feGaussianBlur result="effect1_foregroundBlur_4082_237202" stdDeviation="2"/></filter><filter id="s" width="150" height="44.1" x="16.9" y="7.1" color-interpolation-filters="sRGB" filterUnits="userSpaceOnUse"><feFlood flood-opacity="0" result="BackgroundImageFix"/><feBlend in="SourceGraphic" in2="BackgroundImageFix" result="shape"/><feColorMatrix in="SourceAlpha" result="hardAlpha" values="0 0 0 0 0 0 0 0 0 0 0 0 0 0 0 0 0 0 127 0"/><feOffset dy="-1"/><feGaussianBlur stdDeviation="2"/><feComposite in2="hardAlpha" k2="-1" k3="1" operator="arithmetic"/><feColorMatrix values="0 0 0 0 0.592157 0 0 0 0 0.615686 0 0 0 0 0.941176 0 0 0 1 0"/><feBlend in2="shape" result="effect1_innerShadow_4082_237202"/></filter><filter id="t" width="125.5" height="38.3" x="28.3" y="10.8" color-interpolation-filters="sRGB" filterUnits="userSpaceOnUse"><feFlood flood-opacity="0" result="BackgroundImageFix"/><feColorMatrix in="SourceAlpha" result="hardAlpha" values="0 0 0 0 0 0 0 0 0 0 0 0 0 0 0 0 0 0 127 0"/><feOffset dy="2"/><feGaussianBlur stdDeviation="2"/><feComposite in2="hardAlpha" operator="out"/><feColorMatrix values="0 0 0 0 0.556863 0 0 0 0 0.584314 0 0 0 0 0.929412 0 0 0 1 0"/><feBlend in2="BackgroundImageFix" result="effect1_dropShadow_4082_237202"/><feBlend in="SourceGraphic" in2="effect1_dropShadow_4082_237202" result="shape"/></filter><filter id="u" width="106.5" height="47.8" x="58.6" y="70.5" color-interpolation-filters="sRGB" filterUnits="userSpaceOnUse"><feFlood flood-opacity="0" result="BackgroundImageFix"/><feColorMatrix in="SourceAlpha" result="hardAlpha" values="0 0 0 0 0 0 0 0 0 0 0 0 0 0 0 0 0 0 127 0"/><feOffset dx="-2" dy="1"/><feGaussianBlur stdDeviation="2"/><feComposite in2="hardAlpha" operator="out"/><feColorMatrix values="0 0 0 0 0.138975 0 0 0 0 0.095625 0 0 0 0 0.6375 0 0 0 0.25 0"/><feBlend in2="BackgroundImageFix" result="effect1_dropShadow_4082_237202"/><feBlend in="SourceGraphic" in2="effect1_dropShadow_4082_237202" result="shape"/></filter><filter id="v" width="36.1" height="36.1" x="64.5" y="77.7" color-interpolation-filters="sRGB" filterUnits="userSpaceOnUse"><feFlood flood-opacity="0" result="BackgroundImageFix"/><feBlend in="SourceGraphic" in2="BackgroundImageFix" result="shape"/><feGaussianBlur result="effect1_foregroundBlur_4082_237202" stdDeviation=".5"/></filter><filter id="w" width="19.1" height="19.1" x="85.3" y="73.9" color-interpolation-filters="sRGB" filterUnits="userSpaceOnUse"><feFlood flood-opacity="0" result="BackgroundImageFix"/><feBlend in="SourceGraphic" in2="BackgroundImageFix" result="shape"/><feGaussianBlur result="effect1_foregroundBlur_4082_237202" stdDeviation=".5"/></filter><filter id="x" width="41.8" height="10.5" x="122.3" y="81.5" color-interpolation-filters="sRGB" filterUnits="userSpaceOnUse"><feFlood flood-opacity="0" result="BackgroundImageFix"/><feBlend in="SourceGraphic" in2="BackgroundImageFix" result="shape"/><feGaussianBlur result="effect1_foregroundBlur_4082_237202" stdDeviation=".5"/></filter><filter id="y" width="25.7" height="10.5" x="122.3" y="96.6" color-interpolation-filters="sRGB" filterUnits="userSpaceOnUse"><feFlood flood-opacity="0" result="BackgroundImageFix"/><feBlend in="SourceGraphic" in2="BackgroundImageFix" result="shape"/><feGaussianBlur result="effect1_foregroundBlur_4082_237202" stdDeviation=".5"/></filter><linearGradient id="a" x1="41.8" x2="183" y1="254" y2="254" gradientUnits="userSpaceOnUse"><stop stop-color="#fff" stop-opacity=".5"/><stop offset="0" stop-color="#fff" stop-opacity="0"/></linearGradient><linearGradient id="b" x1="41.8" x2="183" y1="185.8" y2="254" gradientUnits="userSpaceOnUse"><stop stop-color="#EAEAFE" stop-opacity=".2"/><stop offset="1" stop-color="#EAEAFE" stop-opacity="0"/></linearGradient><linearGradient id="c" x1="21.4" x2="21.4" y1="158.3" y2="224.7" gradientUnits="userSpaceOnUse"><stop stop-color="#fff" stop-opacity="0"/><stop offset="1" stop-color="#fff"/></linearGradient><linearGradient id="f" x1="63.6" x2="91.1" y1="221.3" y2="221.3" gradientUnits="userSpaceOnUse"><stop stop-color="#fff"/><stop offset="1" stop-color="#fff" stop-opacity="0"/></linearGradient><linearGradient id="h" x1="84.4" x2="70.2" y1="218" y2="218" gradientUnits="userSpaceOnUse"><stop stop-color="#fff"/><stop offset="1" stop-color="#fff" stop-opacity="0"/></linearGradient><linearGradient id="i" x1="98.6" x2="126.1" y1="220.9" y2="220.9" gradientUnits="userSpaceOnUse"><stop stop-color="#fff"/><stop offset="1" stop-color="#fff" stop-opacity="0"/></linearGradient><linearGradient id="k" x1="119.5" x2="106.2" y1="219.5" y2="219.5" gradientUnits="userSpaceOnUse"><stop stop-color="#fff"/><stop offset="1" stop-color="#fff" stop-opacity="0"/></linearGradient><linearGradient id="l" x1="133.7" x2="161.2" y1="218" y2="218" gradientUnits="userSpaceOnUse"><stop stop-color="#fff"/><stop offset="1" stop-color="#fff" stop-opacity="0"/></linearGradient><linearGradient id="n" x1="154.6" x2="141.3" y1="220.4" y2="220.4" gradientUnits="userSpaceOnUse"><stop stop-color="#fff"/><stop offset="1" stop-color="#fff" stop-opacity="0"/></linearGradient><linearGradient id="r" x1="41.8" x2="183" y1="128" y2="128" gradientUnits="userSpaceOnUse"><stop stop-color="#fff" stop-opacity=".4"/><stop offset="0" stop-color="#fff" stop-opacity="0"/></linearGradient></defs></svg>