<svg xmlns="http://www.w3.org/2000/svg" width="262" height="234" fill="none"><g clip-path="url(#a)"><path fill="#CFD1FF" stroke="url(#b)" d="M229.5 167.9h32.4v63.5h-32.4v-63.5Z"/><path fill="#E4E5FF" d="M229 167.4h33.4l-19-14.3h-33.5l19.1 14.3Z"/><path fill="url(#c)" fill-opacity=".5" d="M229 167.4h33.4l-19-14.3h-33.5l19.1 14.3Z"/><path fill="#8990EC" d="m209.9 153 19.1 14.4v64.5l-19.1-14.3V153Z"/><path fill="url(#d)" fill-opacity=".2" d="m209.9 153 19.1 14.4v64.5l-19.1-14.3V153Z"/><path fill="#CFD1FF" stroke="url(#e)" d="M191 136.4h32v95h-32z"/><path fill="#8990EC" d="m171.5 121.6 19.2 14.3v96l-19.2-14.3v-96Z"/><path fill="url(#f)" d="m171.5 121.6 19.2 14.3v96l-19.2-14.3v-96Z"/><path fill="#E4E5FF" d="M190.6 136.1H224l-19-14.3h-33.5l19 14.3Z"/><path fill="url(#g)" fill-opacity=".5" d="M190.6 136.1H224l-19-14.3h-33.5l19 14.3Z"/><path fill="#CFD1FF" stroke="url(#h)" d="M152.7 185.8h32.4v45.6h-32.4v-45.6Z"/><path fill="#E4E5FF" d="M152.2 185.3h33.4l-19-14.3H133l19.1 14.3Z"/><path fill="url(#i)" fill-opacity=".5" d="M152.2 185.3h33.4l-19-14.3H133l19.1 14.3Z"/><path fill="#8990EC" d="m133 171 19.2 14.3V232l-19.1-14.3V171Z"/><path fill="#BDBFFF" fill-rule="evenodd" d="M158.8 34.8c-9 9-9 23.8 0 33L182.1 91a23.2 23.2 0 0 0 33 0l23.2-23.3a23.3 23.3 0 1 0-33-32.9l-6.7 6.8-6.9-6.8c-9-9.1-23.8-9.1-32.9 0Z" clip-rule="evenodd"/><path fill="url(#j)" fill-opacity=".5" fill-rule="evenodd" d="M158.8 34.8c-9 9-9 23.8 0 33L182.1 91a23.2 23.2 0 0 0 33 0l23.2-23.3a23.3 23.3 0 1 0-33-32.9l-6.7 6.8-6.9-6.8c-9-9.1-23.8-9.1-32.9 0Z" clip-rule="evenodd"/><path fill="url(#k)" fill-opacity=".2" fill-rule="evenodd" d="M158.8 34.8c-9 9-9 23.8 0 33L182.1 91a23.2 23.2 0 0 0 33 0l23.2-23.3a23.3 23.3 0 1 0-33-32.9l-6.7 6.8-6.9-6.8c-9-9.1-23.8-9.1-32.9 0Z" clip-rule="evenodd"/><path fill="#CFD1FF" d="m83.5 30.7 17-29.4 20.3 26.9-17 29.4-20.3-26.9Z"/><path fill="url(#l)" fill-opacity=".5" d="m83.5 30.7 17-29.4 20.3 26.9-17 29.4-20.3-26.9Z"/><path stroke="url(#m)" d="m83.5 30.7 17-29.4 20.3 26.9-17 29.4-20.3-26.9Z"/><path fill="#BABCFE" d="m68.8-.2 31.7.6-17.6 30.4-31.7-.6L68.8-.2Z"/><path fill="url(#n)" fill-opacity=".5" d="m68.8-.2 31.7.6-17.6 30.4-31.7-.6L68.8-.2Z"/><path fill="#8990EC" d="m83 30.5 21 27.7-31.7-.5-20.9-27.8 31.7.6Z"/><path fill="url(#o)" fill-opacity=".5" d="m83 30.5 21 27.7-31.7-.5-20.9-27.8 31.7.6Z"/><path fill="#CFD1FF" d="m34.9 60.4 17-29.4L72.2 58l-17 29.4-20.3-26.9Z"/><path fill="url(#p)" fill-opacity=".5" d="m34.9 60.4 17-29.4L72.2 58l-17 29.4-20.3-26.9Z"/><path stroke="url(#q)" d="m34.9 60.4 17-29.4L72.2 58l-17 29.4-20.3-26.9Z"/><path fill="#BABCFE" d="m20.2 29.6 31.7.5-17.6 30.4-31.7-.6 17.6-30.3Z"/><path fill="url(#r)" fill-opacity=".5" d="m20.2 29.6 31.7.5-17.6 30.4-31.7-.6 17.6-30.3Z"/><path fill="#8990EC" d="m34.5 60.2 20.9 27.7-31.7-.5-21-27.8 31.8.6Z"/><path fill="url(#s)" fill-opacity=".5" d="m34.5 60.2 20.9 27.7-31.7-.5-21-27.8 31.8.6Z"/><path fill="#8990EC" fill-rule="evenodd" d="M96.3 135.8C73.7 113 38.1 111.9 17 133c-21.2 21.1-20 56.6 2.7 79.3C42.3 235 77.8 236.2 99 215c21.1-21.2 20-56.7-2.7-79.3ZM75.1 165A23.5 23.5 0 1 0 42 198.2 23.5 23.5 0 0 0 75.1 165Z" clip-rule="evenodd"/><path fill="url(#t)" fill-opacity=".5" fill-rule="evenodd" d="M96.3 135.8C73.7 113 38.1 111.9 17 133c-21.2 21.1-20 56.6 2.7 79.3C42.3 235 77.8 236.2 99 215c21.1-21.2 20-56.7-2.7-79.3ZM75.1 165A23.5 23.5 0 1 0 42 198.2 23.5 23.5 0 0 0 75.1 165Z" clip-rule="evenodd"/><mask id="w" fill="#fff"><path fill-rule="evenodd" d="M89.6 129a52.3 52.3 0 1 0-74 74 52.3 52.3 0 0 0 74-74Zm-20.4 20.4A23.5 23.5 0 1 0 36 182.6a23.5 23.5 0 0 0 33.2-33.2Z" clip-rule="evenodd"/></mask><path fill="#CFD1FF" fill-rule="evenodd" d="M89.6 129a52.3 52.3 0 1 0-74 74 52.3 52.3 0 0 0 74-74Zm-20.4 20.4A23.5 23.5 0 1 0 36 182.6a23.5 23.5 0 0 0 33.2-33.2Z" clip-rule="evenodd"/><path fill="url(#u)" fill-opacity=".5" fill-rule="evenodd" d="M89.6 129a52.3 52.3 0 1 0-74 74 52.3 52.3 0 0 0 74-74Zm-20.4 20.4A23.5 23.5 0 1 0 36 182.6a23.5 23.5 0 0 0 33.2-33.2Z" clip-rule="evenodd"/><path fill="url(#v)" d="M16.4 129.8c20-20 52.5-20 72.5 0l1.4-1.4a53.3 53.3 0 0 0-75.4 0l1.5 1.4Zm0 72.5c-20-20-20-52.5 0-72.5l-1.5-1.4a53.3 53.3 0 0 0 0 75.3l1.5-1.4Zm72.5 0c-20 20-52.5 20-72.5 0l-1.5 1.4a53.3 53.3 0 0 0 75.4 0l-1.4-1.4Zm0-72.5c20 20 20 52.5 0 72.5l1.4 1.4a53.3 53.3 0 0 0 0-75.3l-1.4 1.4ZM36.7 150c8.8-8.8 23-8.8 31.8 0l1.4-1.4c-9.5-9.5-25-9.5-34.6 0l1.4 1.4Zm0 31.8c-8.8-8.7-8.8-23 0-31.8l-1.4-1.4c-9.6 9.6-9.6 25 0 34.7l1.4-1.5Zm31.8 0c-8.8 8.8-23 8.8-31.8 0l-1.4 1.5c9.6 9.5 25 9.5 34.6 0l-1.4-1.5Zm0-31.8c8.8 8.8 8.8 23 0 31.8l1.4 1.5c9.6-9.6 9.6-25.1 0-34.7l-1.4 1.4Z" mask="url(#w)"/></g><defs><linearGradient id="b" x1="229.1" x2="262.1" y1="167.2" y2="231.7" gradientUnits="userSpaceOnUse"><stop stop-color="#fff" stop-opacity=".7"/><stop offset="1" stop-color="#fff" stop-opacity="0"/></linearGradient><linearGradient id="c" x1="229.1" x2="243.2" y1="167.2" y2="153.1" gradientUnits="userSpaceOnUse"><stop stop-color="#fff"/><stop offset="1" stop-color="#fff" stop-opacity="0"/></linearGradient><linearGradient id="d" x1="220" x2="220" y1="160.5" y2="227.4" gradientUnits="userSpaceOnUse"><stop stop-color="#CFD1FF"/><stop offset="1" stop-color="#CFD1FF" stop-opacity="0"/></linearGradient><linearGradient id="e" x1="190.5" x2="223.5" y1="135.8" y2="231.7" gradientUnits="userSpaceOnUse"><stop stop-color="#fff" stop-opacity=".4"/><stop offset="1" stop-color="#fff" stop-opacity="0"/></linearGradient><linearGradient id="f" x1="181.1" x2="181.1" y1="121.6" y2="182.9" gradientUnits="userSpaceOnUse"><stop stop-color="#CFD1FF"/><stop offset="1" stop-color="#CFD1FF" stop-opacity="0"/></linearGradient><linearGradient id="g" x1="190.5" x2="205.1" y1="136.5" y2="121.6" gradientUnits="userSpaceOnUse"><stop stop-color="#fff"/><stop offset="1" stop-color="#fff" stop-opacity="0"/></linearGradient><linearGradient id="h" x1="152" x2="185.8" y1="185.3" y2="231.7" gradientUnits="userSpaceOnUse"><stop stop-color="#fff" stop-opacity=".4"/><stop offset="1" stop-color="#fff" stop-opacity="0"/></linearGradient><linearGradient id="i" x1="152.4" x2="166.5" y1="185.3" y2="171.1" gradientUnits="userSpaceOnUse"><stop stop-color="#fff"/><stop offset="1" stop-color="#fff" stop-opacity="0"/></linearGradient><linearGradient id="l" x1="83.2" x2="127.4" y1="30.1" y2="27.5" gradientUnits="userSpaceOnUse"><stop stop-color="#fff"/><stop offset="1" stop-color="#fff" stop-opacity="0"/></linearGradient><linearGradient id="m" x1="83.1" x2="121.6" y1="30.4" y2="28.2" gradientUnits="userSpaceOnUse"><stop stop-color="#fff" stop-opacity=".2"/><stop offset="1" stop-color="#fff" stop-opacity="0"/></linearGradient><linearGradient id="n" x1="51.3" x2="82.8" y1="30.1" y2="30.5" gradientUnits="userSpaceOnUse"><stop stop-color="#8990EC"/><stop offset="1" stop-color="#8990EC" stop-opacity="0"/></linearGradient><linearGradient id="o" x1="92.4" x2="53.5" y1="42.7" y2="67.9" gradientUnits="userSpaceOnUse"><stop stop-color="#fff"/><stop offset="1" stop-color="#fff" stop-opacity="0"/></linearGradient><linearGradient id="p" x1="34.5" x2="70" y1="59.8" y2="53.6" gradientUnits="userSpaceOnUse"><stop stop-color="#fff"/><stop offset="1" stop-color="#fff" stop-opacity="0"/></linearGradient><linearGradient id="q" x1="34.4" x2="73" y1="60.1" y2="57.5" gradientUnits="userSpaceOnUse"><stop stop-color="#fff" stop-opacity=".3"/><stop offset="1" stop-color="#fff" stop-opacity="0"/></linearGradient><linearGradient id="r" x1="2.6" x2="34.2" y1="59.8" y2="60.2" gradientUnits="userSpaceOnUse"><stop stop-color="#8990EC"/><stop offset="1" stop-color="#8990EC" stop-opacity="0"/></linearGradient><linearGradient id="s" x1="53.9" x2="21.8" y1="59.2" y2="86.3" gradientUnits="userSpaceOnUse"><stop stop-color="#fff"/><stop offset="1" stop-color="#fff" stop-opacity="0"/></linearGradient><linearGradient id="t" x1="18.1" x2="61.9" y1="212.4" y2="158" gradientUnits="userSpaceOnUse"><stop stop-color="#fff"/><stop offset="1" stop-color="#fff" stop-opacity="0"/></linearGradient><linearGradient id="u" x1="74.6" x2="15.7" y1="218.3" y2="129" gradientUnits="userSpaceOnUse"><stop stop-color="#fff"/><stop offset="1" stop-color="#fff" stop-opacity="0"/></linearGradient><linearGradient id="v" x1="78.7" x2="11.7" y1="211.8" y2="133" gradientUnits="userSpaceOnUse"><stop stop-color="#E6E7FF" stop-opacity=".2"/><stop offset="1" stop-color="#fff" stop-opacity="0"/></linearGradient><radialGradient id="j" cx="0" cy="0" r="1" gradientTransform="rotate(129 104 79.2) scale(60 38)" gradientUnits="userSpaceOnUse"><stop stop-color="#fff"/><stop offset="1" stop-color="#fff" stop-opacity="0"/></radialGradient><radialGradient id="k" cx="0" cy="0" r="1" gradientTransform="matrix(30 41 -20 14 177.9 47.6)" gradientUnits="userSpaceOnUse"><stop stop-color="#fff"/><stop offset="1" stop-color="#fff" stop-opacity="0"/></radialGradient><clipPath id="a"><path fill="#fff" d="M0 0h262v233H0z"/></clipPath></defs></svg>