<svg xmlns="http://www.w3.org/2000/svg" width="269" height="231" fill="none"><path fill="#989EEE" d="m24.1 4.9 121.2 69.9 121.2 70-10.6 2.8H24.1V4.9Z"/><path fill="#CFD1FF" d="M24.1 4.4 27 2l236.6 12.5-236.6-1-2.9 1V4.4Z"/><path fill="#BFC1FF" d="M27 2h239.5v142.7H27z"/><g filter="url(#a)"><path fill="#CFD1FF" d="M27 2h239.5v11.5H27z"/></g><g filter="url(#b)"><circle cx="34.2" cy="8.2" r="2.4" fill="#E1E1EB"/><circle cx="34.2" cy="8.2" r="2.4" fill="url(#c)" fill-opacity=".5"/></g><g filter="url(#d)"><circle cx="43.7" cy="8.2" r="2.4" fill="#E1E1EB"/><circle cx="43.7" cy="8.2" r="2.4" fill="url(#e)" fill-opacity=".5"/></g><g filter="url(#f)"><circle cx="53.3" cy="8.2" r="2.4" fill="#E1E1EB"/><circle cx="53.3" cy="8.2" r="2.4" fill="url(#g)" fill-opacity=".5"/></g><g filter="url(#h)"><rect width="98.6" height="51.4" x="26.7" y="89.4" fill="#989EEE" rx="4"/></g><g filter="url(#i)" shape-rendering="crispEdges"><path fill="#fff" d="M159.6 72.8h15.5l-2-7.1c-2-6.8-3.7-14.3-5.6-21.3h-.4c-1.7 7.1-3.6 14.5-5.5 21.3l-2 7.1Zm22.9 26.8L177.9 83h-21l-4.7 16.7h-13.1l20.8-65h15.3l21 65h-13.7ZM220 121c-11.6 0-20.6-4-20.6-12.7 0-4 2.6-7.6 7-10.2v-.4a9.3 9.3 0 0 1-4.4-8.3c0-3.7 2.5-7 5.4-9.2v-.4A16.3 16.3 0 0 1 201 67c0-11.6 9.4-17.8 19.9-17.8 2.7 0 5.4.5 7.4 1.2h17.7v9.5h-8.4c1.3 1.7 2.3 4.4 2.3 7.5 0 11-8.5 16.7-19 16.7-2 0-4.2-.5-6.3-1.2-1.4 1.2-2.1 2.3-2.1 4.2 0 2.7 1.9 4 7.7 4h8.3c12 0 18.3 3.8 18.3 12.4 0 10-10.3 17.5-26.7 17.5Zm.8-45c4.3 0 7.6-3.2 7.6-9s-3.2-9-7.6-9c-4.4 0-7.7 3.2-7.7 9s3.4 9 7.7 9Zm1.1 36.8c7.4 0 12.5-3.2 12.5-7.1 0-3.5-2.9-4.4-8.2-4.4h-6c-3 0-5-.3-6.8-.7-2.2 1.8-3.2 3.7-3.2 5.7 0 4.1 4.5 6.5 11.7 6.5Z"/><path stroke="url(#j)" d="m182 99.8.1.3h14.7l-.2-.6-21-65V34h-16.1v.3l-21 65-.1.7h14.2l.1-.3 4.5-16.4h20.3l4.5 16.4Zm64.4-49.4v-.5h-18.1a23.7 23.7 0 0 0-21.7 3.4 17 17 0 0 0-6.2 13.7c0 5.7 3.1 10.4 6.4 13-2.8 2.2-5.3 5.7-5.3 9.4 0 4.1 1.9 6.8 4.4 8.5-4.4 2.6-7 6.2-7 10.4a11 11 0 0 0 6.2 10 31 31 0 0 0 15 3.2c8.2 0 15-2 19.7-5.1 4.8-3.2 7.4-7.7 7.4-12.9 0-4.5-1.6-7.7-4.9-9.8-3.2-2-7.9-3-13.9-3h-8.3c-2.9 0-4.7-.4-5.8-1-.5-.3-.9-.6-1.1-1-.2-.5-.3-1-.3-1.6 0-.9.1-1.5.4-2.1.3-.6.7-1 1.3-1.5 2 .7 4.3 1 6.2 1 5.4 0 10.2-1.4 13.8-4.2a16 16 0 0 0 5.7-13c0-2.7-.7-5.1-1.8-7h7.9v-9.9Zm-72 22h-14.1l1.7-6.6a470 470 0 0 0 5.3-20l1.9 7.2 3.5 12.8 1.8 6.5ZM228 67c0 2.8-.8 5-2 6.4a6.6 6.6 0 0 1-5.1 2.2c-2 0-3.8-.8-5.1-2.2a9.3 9.3 0 0 1-2.1-6.4c0-2.8.8-5 2-6.4 1.3-1.4 3.1-2.1 5.2-2.1 2 0 3.8.7 5.1 2.1 1.3 1.5 2 3.6 2 6.4Zm6 38.7c0 1.7-1 3.3-3.2 4.6-2.1 1.2-5.1 2-8.8 2a18 18 0 0 1-8.3-1.6c-2-1-3-2.5-3-4.4 0-1.8 1-3.5 3-5.2 1.7.5 3.8.7 6.7.7h6c2.6 0 4.5.2 5.8.8.6.3 1 .7 1.4 1.2.3.5.4 1 .4 1.9Z"/></g><rect width="116.8" height="132.2" x=".7" y="97.7" fill="#F5F5F5" rx="3.5"/><rect width="116.8" height="132.2" x=".7" y="97.7" fill="url(#k)" fill-opacity=".2" rx="3.5"/><rect width="116.8" height="132.2" x=".7" y="97.7" stroke="url(#l)" rx="3.5"/><g filter="url(#m)"><rect width="96.7" height="77.6" x="10.7" y="107.7" fill="#BDBFFF" rx="2"/></g><g filter="url(#n)"><rect width="67.1" height="9.6" x="10.7" y="193.9" fill="#EAEAFE" rx="4.5"/><g filter="url(#o)"><rect width="65.1" height="8.6" x="12.6" y="194.9" fill="#E3E4FF" rx="4.3"/></g><rect width="25.4" height="9.5" x="10.7" y="208.7" fill="#EAEAFE" rx="4.5"/><g filter="url(#p)"><rect width="23.9" height="8.6" x="11.8" y="209.9" fill="#E3E4FF" rx="4.3"/></g></g><defs><filter id="a" width="247.5" height="19.5" x="21" y="0" color-interpolation-filters="sRGB" filterUnits="userSpaceOnUse"><feFlood flood-opacity="0" result="BackgroundImageFix"/><feColorMatrix in="SourceAlpha" result="hardAlpha" values="0 0 0 0 0 0 0 0 0 0 0 0 0 0 0 0 0 0 127 0"/><feOffset dx="-2" dy="2"/><feGaussianBlur stdDeviation="2"/><feComposite in2="hardAlpha" operator="out"/><feColorMatrix values="0 0 0 0 0.596078 0 0 0 0 0.619608 0 0 0 0 0.933333 0 0 0 1 0"/><feBlend in2="BackgroundImageFix" result="effect1_dropShadow_4082_237374"/><feBlend in="SourceGraphic" in2="effect1_dropShadow_4082_237374" result="shape"/></filter><filter id="b" width="6.8" height="6.8" x="29.8" y="4.8" color-interpolation-filters="sRGB" filterUnits="userSpaceOnUse"><feFlood flood-opacity="0" result="BackgroundImageFix"/><feColorMatrix in="SourceAlpha" result="hardAlpha" values="0 0 0 0 0 0 0 0 0 0 0 0 0 0 0 0 0 0 127 0"/><feOffset dx="-1"/><feGaussianBlur stdDeviation=".5"/><feComposite in2="hardAlpha" operator="out"/><feColorMatrix values="0 0 0 0 0.73533 0 0 0 0 0.74666 0 0 0 0 0.895833 0 0 0 1 0"/><feBlend in2="BackgroundImageFix" result="effect1_dropShadow_4082_237374"/><feBlend in="SourceGraphic" in2="effect1_dropShadow_4082_237374" result="shape"/></filter><filter id="d" width="6.8" height="6.8" x="39.3" y="4.8" color-interpolation-filters="sRGB" filterUnits="userSpaceOnUse"><feFlood flood-opacity="0" result="BackgroundImageFix"/><feColorMatrix in="SourceAlpha" result="hardAlpha" values="0 0 0 0 0 0 0 0 0 0 0 0 0 0 0 0 0 0 127 0"/><feOffset dx="-1"/><feGaussianBlur stdDeviation=".5"/><feComposite in2="hardAlpha" operator="out"/><feColorMatrix values="0 0 0 0 0.73533 0 0 0 0 0.74666 0 0 0 0 0.895833 0 0 0 1 0"/><feBlend in2="BackgroundImageFix" result="effect1_dropShadow_4082_237374"/><feBlend in="SourceGraphic" in2="effect1_dropShadow_4082_237374" result="shape"/></filter><filter id="f" width="6.8" height="6.8" x="48.9" y="4.8" color-interpolation-filters="sRGB" filterUnits="userSpaceOnUse"><feFlood flood-opacity="0" result="BackgroundImageFix"/><feColorMatrix in="SourceAlpha" result="hardAlpha" values="0 0 0 0 0 0 0 0 0 0 0 0 0 0 0 0 0 0 127 0"/><feOffset dx="-1"/><feGaussianBlur stdDeviation=".5"/><feComposite in2="hardAlpha" operator="out"/><feColorMatrix values="0 0 0 0 0.73533 0 0 0 0 0.74666 0 0 0 0 0.895833 0 0 0 1 0"/><feBlend in2="BackgroundImageFix" result="effect1_dropShadow_4082_237374"/><feBlend in="SourceGraphic" in2="effect1_dropShadow_4082_237374" result="shape"/></filter><filter id="h" width="146.6" height="99.4" x="2.7" y="65.4" color-interpolation-filters="sRGB" filterUnits="userSpaceOnUse"><feFlood flood-opacity="0" result="BackgroundImageFix"/><feBlend in="SourceGraphic" in2="BackgroundImageFix" result="shape"/><feGaussianBlur result="effect1_foregroundBlur_4082_237374" stdDeviation="12"/></filter><filter id="i" width="118" height="96.4" x="132.7" y="31.6" color-interpolation-filters="sRGB" filterUnits="userSpaceOnUse"><feFlood flood-opacity="0" result="BackgroundImageFix"/><feColorMatrix in="SourceAlpha" result="hardAlpha" values="0 0 0 0 0 0 0 0 0 0 0 0 0 0 0 0 0 0 127 0"/><feOffset dx="-1" dy="2"/><feGaussianBlur stdDeviation="2"/><feComposite in2="hardAlpha" operator="out"/><feColorMatrix values="0 0 0 0 0.556863 0 0 0 0 0.584314 0 0 0 0 0.929412 0 0 0 1 0"/><feBlend in2="BackgroundImageFix" result="effect1_dropShadow_4082_237374"/><feBlend in="SourceGraphic" in2="effect1_dropShadow_4082_237374" result="shape"/></filter><filter id="m" width="96.8" height="78.6" x="10.7" y="107.7" color-interpolation-filters="sRGB" filterUnits="userSpaceOnUse"><feFlood flood-opacity="0" result="BackgroundImageFix"/><feBlend in="SourceGraphic" in2="BackgroundImageFix" result="shape"/><feColorMatrix in="SourceAlpha" result="hardAlpha" values="0 0 0 0 0 0 0 0 0 0 0 0 0 0 0 0 0 0 127 0"/><feOffset dy="1"/><feGaussianBlur stdDeviation="2"/><feComposite in2="hardAlpha" k2="-1" k3="1" operator="arithmetic"/><feColorMatrix values="0 0 0 0 0.541176 0 0 0 0 0.572549 0 0 0 0 0.92549 0 0 0 1 0"/><feBlend in2="shape" result="effect1_innerShadow_4082_237374"/></filter><filter id="n" width="75.1" height="32.6" x="4.7" y="190.9" color-interpolation-filters="sRGB" filterUnits="userSpaceOnUse"><feFlood flood-opacity="0" result="BackgroundImageFix"/><feColorMatrix in="SourceAlpha" result="hardAlpha" values="0 0 0 0 0 0 0 0 0 0 0 0 0 0 0 0 0 0 127 0"/><feOffset dx="-2" dy="1"/><feGaussianBlur stdDeviation="2"/><feComposite in2="hardAlpha" operator="out"/><feColorMatrix values="0 0 0 0 0.138975 0 0 0 0 0.095625 0 0 0 0 0.6375 0 0 0 0.25 0"/><feBlend in2="BackgroundImageFix" result="effect1_dropShadow_4082_237374"/><feBlend in="SourceGraphic" in2="effect1_dropShadow_4082_237374" result="shape"/></filter><filter id="o" width="67.1" height="10.6" x="11.6" y="193.9" color-interpolation-filters="sRGB" filterUnits="userSpaceOnUse"><feFlood flood-opacity="0" result="BackgroundImageFix"/><feBlend in="SourceGraphic" in2="BackgroundImageFix" result="shape"/><feGaussianBlur result="effect1_foregroundBlur_4082_237374" stdDeviation=".5"/></filter><filter id="p" width="25.9" height="10.6" x="10.8" y="208.9" color-interpolation-filters="sRGB" filterUnits="userSpaceOnUse"><feFlood flood-opacity="0" result="BackgroundImageFix"/><feBlend in="SourceGraphic" in2="BackgroundImageFix" result="shape"/><feGaussianBlur result="effect1_foregroundBlur_4082_237374" stdDeviation=".5"/></filter><radialGradient id="c" cx="0" cy="0" r="1" gradientTransform="matrix(-1 3 -3 -1 35.4 7.8)" gradientUnits="userSpaceOnUse"><stop stop-color="#fff"/><stop offset="1" stop-color="#fff" stop-opacity="0"/></radialGradient><radialGradient id="e" cx="0" cy="0" r="1" gradientTransform="matrix(-1 3 -3 -1 45 7.8)" gradientUnits="userSpaceOnUse"><stop stop-color="#fff"/><stop offset="1" stop-color="#fff" stop-opacity="0"/></radialGradient><radialGradient id="g" cx="0" cy="0" r="1" gradientTransform="matrix(-1 3 -3 -1 54.5 7.8)" gradientUnits="userSpaceOnUse"><stop stop-color="#fff"/><stop offset="1" stop-color="#fff" stop-opacity="0"/></radialGradient><linearGradient id="j" x1="139.1" x2="246.3" y1="48" y2="50.4" gradientUnits="userSpaceOnUse"><stop stop-color="#989EEE"/><stop offset="1" stop-color="#B8B8B8" stop-opacity="0"/></linearGradient><linearGradient id="k" x1="59.1" x2="59.1" y1="97.2" y2="230.3" gradientUnits="userSpaceOnUse"><stop stop-color="#AEAEAE" stop-opacity="0"/><stop offset="1" stop-color="#999898"/></linearGradient><linearGradient id="l" x1="59.1" x2="59.1" y1="97.2" y2="230.3" gradientUnits="userSpaceOnUse"><stop stop-color="#fff"/><stop offset="1" stop-color="#fff" stop-opacity="0"/></linearGradient></defs></svg>