<svg xmlns="http://www.w3.org/2000/svg" width="330" height="326" fill="none"><g clip-path="url(#a)"><path fill="#D4D4D4" d="M81.8 256.7c52.2 14.8 133-9 180.4-53.2 26.6-24.8 37-50.7 31.9-71.3l-6-27.5-8.6 5a69.7 69.7 0 0 0-26-13c-52.1-14.9-132.9 9-180.3 53.1-47.4 44.2-43.5 92 8.6 106.9Z"/><path fill="#838AE9" d="m61.1 208.1-25.6-14.7 5.6 27C45 236.9 58.6 250 82 256.7l-6.2-28-14.6-20.6Z"/><path fill="#E9E9E9" d="M137.6 79.2C68.4 105.6 23 158.2 36.1 196.5c13.3 38.4 80.1 48.2 149.4 21.8 69.2-26.4 114.7-79 101.5-117.4-13.2-38.4-80-48.1-149.4-21.7Z"/><path fill="#BDBFFF" d="M34 186.3c1.6 19.4 15.6 35 41.7 42.5l85.9-80L34 186.2Z"/><path fill="#EBEBEB" d="M247.4 68.7c-52.2-14.8-133 9-180.3 53.2-23.8 22-34.6 45-33 64.4l127.5-37.5 85.8-80Z"/><path fill="url(#b)" fill-opacity=".2" d="M247.4 68.7c-52.2-14.8-133 9-180.3 53.2-23.8 22-34.6 45-33 64.4l127.5-37.5 85.8-80Z"/><path fill="#DEDDFF" d="M247.4 68.7c-52.2-14.8-133 9-180.3 53.2-23.8 22-34.6 45-33 64.4l127.5-37.5 85.8-80Z"/><path fill="#000AFF" fill-rule="evenodd" d="M81.8 256.7c52.2 14.8 133-9 180.4-53.2 26.6-24.8 37-50.7 31.9-71.3l-5.6-25.4c-.4-2-.9-4-1.5-5.9-13.2-38.4-80-48.1-149.4-21.7a207.8 207.8 0 0 0-80.2 52.6c-8.1 9-14 18-18 26.9a54.3 54.3 0 0 0-4.8 31.8c.3 2 .9 4 1.5 6l4.4 21c2.9 18 16.7 32.2 41.3 39.2Z" clip-rule="evenodd" style="mix-blend-mode:lighten"/></g><defs><linearGradient id="b" x1="158.7" x2="333.6" y1="151.7" y2="-11.2" gradientUnits="userSpaceOnUse"><stop/><stop offset="1" stop-opacity="0"/></linearGradient><clipPath id="a"><path fill="#fff" d="M131.4 325.4 0 184.4 197.8 0l131.4 141z"/></clipPath></defs></svg>