<svg xmlns="http://www.w3.org/2000/svg" width="331" height="346" fill="none"><path fill="#8686F2" d="M148.8 345.7c-2.4 0-5-.7-7.1-2l-96-55.5a2.5 2.5 0 0 1-1.3-2.2c0-.9.5-1.7 1.3-2.1l173-100.2h.1l103 59.7c.9.5 1.3 1.3 1.3 2.2 0 .9-.4 1.7-1.2 2.1l-165.9 96c-2.2 1.3-4.7 2-7.2 2Zm69.9-161.4-172.8 100a2 2 0 0 0 0 3.5l96 55.5c4.3 2.5 9.6 2.5 13.9 0l165.8-96a2 2 0 0 0 0-3.5l-102.9-59.5Z" style="mix-blend-mode:lighten"/><path fill="#D9D9D9" d="M213.3 140 190.2 2.6l1.9-.8-2.8-1.6c-.6-.3-1.3-.3-2.2.2L2.4 107.3C1 108-.2 110.4 0 112l23.3 138.5c.2.7.5 1.2 1 1.4l2.7 1.6.5-2.6h-.1l183.5-106.2c1.5-.8 2.7-3 2.4-4.7Z"/><path fill="#D4D4D4" d="m3.5 111-3-1.3c-.4.8-.6 1.6-.5 2.3l23.3 138.5c.2.7.5 1.2 1 1.4l2.7 1.6.5-2.6h-.1l9.2-5.3L3.5 111Z"/><path fill="#E9E9E9" d="M213.8 146.4 29.1 253.3c-1.4.8-2.6.3-2.9-1.1L3 113.6c-.2-1.5 1-3.8 2.4-4.7L190 2.1c1.4-.9 2.7-.4 3 1l23.2 138.6c.3 1.6-.9 3.8-2.4 4.7Z"/><path fill="#D4D4D4" d="m187.6 10.9-178 103 22 130.5 178-103-22-130.5Z" opacity=".5"/><path fill="#D4D4D4" d="m329.9 212-10 5.3-101.1-58.5c-1.7-1-4.7-.9-6.6.3L37.9 259.9l-9.3-4.6 3.7 9.7c.1.4.5.8 1 1.1l106.5 61.6c1.6 1 4.6.8 6.6-.3l178.3-103.2c.8-.5 1.3-1 1.5-1.6L330 212Z"/><path fill="#E9E9E9" d="M328.3 213.6 145.5 319.4c-2 1.2-5 1.3-6.7.3L29.7 256.6c-1.7-1-1.5-2.8.5-4L213 147c2-1.2 5-1.3 6.7-.3l109.1 63.1c1.8 1 1.5 2.8-.5 4Z"/><path fill="#fff" d="M328.4 212.6 145.5 318.4c-2 1.1-5 1.2-6.7.2l-109.1-63c-.6-.4-.9-.8-1-1.3-.3.9 0 1.7 1 2.3l109 63.1c1.8 1 4.8.9 6.8-.3l182.9-105.8c1.3-.7 1.8-1.8 1.5-2.7-.2.6-.7 1.2-1.5 1.7Z" opacity=".5"/><path fill="#E9E9E9" d="m58.1 250.7 152-88c1-.5 2.2-.5 3.2 0l54.1 31.4c.8.5.8 1.6 0 2l-151.8 88c-1 .5-2.3.5-3.3 0l-54.2-31.4c-.7-.5-.7-1.6 0-2Z"/><path fill="#D4D4D4" d="m58.1 252.7.6.3L210 165.4c1-.6 2.2-.6 3.2 0l53.6 31 .5-.2c.8-.5.8-1.6 0-2l-54-31.4c-1.1-.6-2.3-.6-3.4 0L58.1 250.7c-.7.4-.7 1.5 0 2Z"/><path fill="url(#a)" d="m215.9 272 41-23.8c1.6-.9 1.6-2.4 0-3.3l-28-16.2c-1.7-1-4.2-1-5.8 0l-41 23.7c-1.6 1-1.6 2.4 0 3.3l28 16.3c1.6.9 4.2.9 5.8 0Z"/><path fill="#D4D4D4" d="m182 253.8 41-23.8c1.7-.9 4.2-.9 5.8 0l28 16.3c.6.2.9.6 1 1 .5-.9.2-1.8-1-2.4l-28-16.2c-1.6-1-4.1-1-5.7 0l-41 23.7c-1.1.6-1.4 1.5-1 2.3.2-.3.5-.7 1-1Z"/><path fill="url(#b)" d="m128.5 242.8-39.4-24.3 88.6-51.2 41.8 28.2-91 47.3Z" opacity=".4"/><path fill="url(#c)" d="m89.1 218.5-9-57 83.1-47.9v62l-74 43Z" opacity=".4"/><path fill="url(#d)" d="m171.9 85.9-8.8-5c-.1-.1-.3-.2-.4 0L52.5 144.5c-.3.2-.6.8-.6 1.2v20.9c0 .2 0 .4.2.5l8.9 5v-10l101.7-58.8c.3-.2.6-.8.6-1.2V95L172 86Z"/><path fill="url(#e)" d="M171.5 108.5 61.4 172.3c-.4.2-.7 0-.7-.5v-20.9c0-.5.3-1 .7-1.2l110.1-63.8c.4-.2.7 0 .7.5v20.9c0 .5-.3 1-.7 1.2Z"/><path fill="#E9E9E9" d="M156.3 104.3 70.6 155c2.6 2.2 5.1 4.9 7.4 7.7l86.4-50a59 59 0 0 0-8-8.3Z" opacity=".6"/><path fill="#E9E9E9" d="m168.4 102.3-103.9 60c-.2.2-.4 0-.4-.3v-5.2c0-.3.2-.7.4-.9l103.9-60c.2-.2.4 0 .4.3v5.2c0 .3-.2.7-.4.9Z"/><path fill="#453C9E" d="m168.4 95.8-2.1 1.3v2.8c0 .3-.2.7-.5.8l-101.7 59v2.3c0 .4.2.5.4.4l103.9-60.1c.2-.2.4-.6.4-.9v-5.2c0-.4-.2-.5-.4-.4Z"/><path fill="url(#f)" d="m226.7 327.8 86.4-50a54.7 54.7 0 0 1-23.4-34 19.7 19.7 0 0 0-9.3-13.1L215 192.9a62.7 62.7 0 0 1-31.2-50.5 57.2 57.2 0 0 0-24.8-41.2l-86.5 50a54.4 54.4 0 0 1 22.8 40c1.6 21 13 40 31.2 50.5l67.3 39c4.9 2.8 8.2 7.5 9.4 13a54.7 54.7 0 0 0 23.4 34v.1Z"/><path fill="#453C9E" d="m159 101.2-86.4 50 2.1 1.3 86.4-50-2-1.3Z" opacity=".8"/><path fill="#000AFF" fill-rule="evenodd" d="m189.3.2 2.7 1.6c.5.2.8.7 1 1.4l23.2 138.5c.3 1.6-.9 3.8-2.4 4.7l-.6.4c2-1 4.9-1.2 6.5-.2l109.1 63.1c1.1.7 1.5 1.6 1 2.5l-3.6 10.4c-.2.6-.7 1.1-1.5 1.6l-18 10.4 15.2 8.8c.8.5 1.2 1.3 1.2 2.2 0 .9-.4 1.7-1.2 2.1L297.3 262a48.4 48.4 0 0 0 15.8 15.9l-86.4 50c-6-3.5-11.5-9.2-15.8-15.9L156 343.7a14.3 14.3 0 0 1-14.3 0l-96-55.5a2.5 2.5 0 0 1-1.3-2.2c0-.9.5-1.7 1.3-2.1l9.1-5.4-21.5-12.4c-.5-.3-.9-.7-1-1.2l-3.6-9.3c-.5-.9 0-2 1.3-2.8l-.9.5c-.8.5-1.6.5-2.1.2l-2.7-1.6c-.5-.2-.8-.7-1-1.4L0 112a2.9 2.9 0 0 1 0-.9 5.5 5.5 0 0 1 2.4-3.8L187.1.4c.9-.5 1.6-.5 2.2-.2Zm132.3 247.1-24.5 14.2c-3.4-5.3-6-11.3-7.2-17.1l16.3-9.5 15.4 9c.7.3 1 1 1 1.7a2 2 0 0 1-1 1.7Zm-175.2 80.1 57-33a56.4 56.4 0 0 0 7.3 17.2l-55 31.7a13.8 13.8 0 0 1-13.8 0l-96-55.5a2 2 0 0 1 0-3.5l9.4-5.5 84.5 48.9c1.6 1 4.6.8 6.6-.3Z" clip-rule="evenodd" opacity=".8" style="mix-blend-mode:lighten"/><defs><linearGradient id="a" x1="180.9" x2="258.1" y1="250.3" y2="250.3" gradientUnits="userSpaceOnUse"><stop stop-color="#C0BFF6"/><stop offset=".3" stop-color="#C4C3F6"/><stop offset=".6" stop-color="#D2D2F9"/><stop offset="1" stop-color="#E9E9FD"/></linearGradient><linearGradient id="d" x1="73.7" x2="132.2" y1="185.2" y2="80.2" gradientUnits="userSpaceOnUse"><stop stop-color="#5761D7"/><stop offset="0" stop-color="#5B65D8"/><stop offset=".1" stop-color="#6A72DE"/><stop offset=".1" stop-color="#8188E8"/><stop offset=".2" stop-color="#A2A6F5"/><stop offset=".2" stop-color="#BCBEFF"/></linearGradient><linearGradient id="e" x1="145.3" x2="106.3" y1="185.6" y2="109.7" gradientUnits="userSpaceOnUse"><stop stop-color="#C0BFF6"/><stop offset=".3" stop-color="#C4C3F6"/><stop offset=".6" stop-color="#D2D2F9"/><stop offset="1" stop-color="#E9E9FD"/></linearGradient><linearGradient id="f" x1="250.1" x2="126.4" y1="322.2" y2="103.5" gradientUnits="userSpaceOnUse"><stop stop-color="#C0BFF6"/><stop offset=".1" stop-color="#C2C1F6"/><stop offset=".1" stop-color="#CBCBF8"/><stop offset=".2" stop-color="#DBDAFA"/><stop offset=".2" stop-color="#E9E9FD"/><stop offset=".3" stop-color="#D7D7FA"/><stop offset=".3" stop-color="#CAC9F7"/><stop offset=".4" stop-color="#C2C1F6"/><stop offset=".5" stop-color="#C0BFF6"/><stop offset=".6" stop-color="#CFCFF8"/><stop offset=".8" stop-color="#E9E9FD"/><stop offset="1" stop-color="#C0BFF6"/></linearGradient><radialGradient id="b" cx="0" cy="0" r="1" gradientTransform="matrix(86 0 0 87 116.4 205)" gradientUnits="userSpaceOnUse"><stop stop-color="#505050"/><stop offset="1" stop-color="#505050"/></radialGradient><radialGradient id="c" cx="0" cy="0" r="1" gradientTransform="matrix(66 0 0 66 97.5 166)" gradientUnits="userSpaceOnUse"><stop stop-color="#D4D4D4"/><stop offset="1" stop-color="#292929"/></radialGradient></defs></svg>