<?xml version="1.0" encoding="utf-8"?>
<!-- Generator: Adobe Illustrator 22.0.1, SVG Export Plug-In . SVG Version: 6.00 Build 0)  -->
<svg version="1.1" id="圖層_1" xmlns="http://www.w3.org/2000/svg" xmlns:xlink="http://www.w3.org/1999/xlink" x="0px" y="0px"
	 viewBox="0 0 96 96" enable-background="new 0 0 96 96" xml:space="preserve">
<circle fill="#E6F0FF" stroke="#040000" stroke-miterlimit="10" cx="48" cy="48" r="48"/>
<path fill="#CCE0FF"  d="M24.9,81.4c6.8,4.7,14.8,7.2,23.1,7.1c8.2,0,16.3-2.5,23.1-7.1c2.9-2,4.1-5.8,2.4-8.9
	C70,66.1,62.8,62.1,48,62.1s-22,4-25.5,10.4C20.8,75.6,22,79.4,24.9,81.4z M48,47.7c-3.8,0-7.5-1.5-10.2-4.2s-4.2-6.4-4.2-10.2
	s1.5-7.5,4.2-10.2s6.4-4.2,10.2-4.2s7.5,1.5,10.2,4.2s4.2,6.4,4.2,10.2s-1.5,7.5-4.2,10.2S51.8,47.7,48,47.7z"/>
</svg>
